<svg width="500" height="500" viewBox="0 0 500 500" fill="none" xmlns="http://www.w3.org/2000/svg">
<rect width="500" height="500" fill="#E5E5E5"/>
<rect width="500" height="500" rx="25" fill="#222222"/>
<path d="M379.3 342C374.3 342 369.3 339.5 364.3 334.5C359.5 329.3 355.1 322.9 351.1 315.3C347.3 307.7 342.8 299.5 337.6 290.7C332.4 281.7 327.2 273.3 322 265.5C316.8 257.7 310.2 251.1 302.2 245.7C294.2 240.3 285.7 237.4 276.7 237V274.2C276.7 295.8 277.3 310.5 278.5 318.3C279.9 325.9 281.8 330.7 284.2 332.7C289 336.5 296.4 338.4 306.4 338.4L307 342H226.6L227.2 338.4C237 338.4 244.2 336.6 248.8 333C252.6 330 254.8 320.2 255.4 303.6C255.8 297 256 287.2 256 274.2V198.3C256 176.1 255.4 161.4 254.2 154.2C253 147 251.2 142.5 248.8 140.7C244.2 137.3 237 135.6 227.2 135.6L226.6 132H296.2C346.6 132 371.8 149 371.8 183C371.8 197.6 366.6 209.9 356.2 219.9C346 229.7 333.6 235.4 319 237C333.6 245.6 347.1 261.4 359.5 284.4C364.3 293.4 369.4 302 374.8 310.2C386.6 329 401.8 338.4 420.4 338.4L421 342H379.3ZM276.7 138.9V231H295.6C310.8 231 323.4 227.1 333.4 219.3C343.4 211.5 348.4 199.9 348.4 184.5C348.4 154.1 331 138.9 296.2 138.9H276.7Z" fill="white"/>
<path d="M246.4 132C212 132 186.2 135 169 141C161.2 143.8 152.9 147.8 144.1 153C135.3 158.2 128.2 164.4 122.8 171.6C117.2 178.8 112.6 188 109 199.2C105.2 210.4 103.3 223 103.3 237C103.3 250.8 105.2 263.3 109 274.5C112.6 285.5 117.2 294.6 122.8 301.8C128.2 309 135 315.3 143.2 320.7C151.2 325.9 158.8 329.8 166 332.4C173.2 335 181.2 337.1 190 338.7C201.8 340.9 213.9 342 226.3 342H307L306.4 338.4C296.4 338.4 289.1 336.5 284.5 332.7C279.5 328.5 277 309 277 274.2V199.8C277 178.4 277.7 163.8 279.1 156C280.3 148 282.1 143 284.5 141C289.1 137.2 296.4 135.3 306.4 135.3L307 132H246.4ZM244.9 334.8C242.5 335 237.6 335.1 230.2 335.1C222.6 335.1 214.4 334.3 205.6 332.7C196.6 331.1 187.4 328.1 178 323.7C168.4 319.1 160.2 313.3 153.4 306.3C146.4 299.3 140.7 289.9 136.3 278.1C131.7 266.1 129.4 252.5 129.4 237.3C129.4 221.9 131.6 208.3 136 196.5C140.4 184.7 146.1 175.3 153.1 168.3C160.1 161.1 168.3 155.2 177.7 150.6C194.3 142.8 212.6 138.9 232.6 138.9C241.6 138.9 249.4 139.5 256 140.7V277.8C256 299.4 255.4 313.7 254.2 320.7C253 327.7 249.9 332.4 244.9 334.8Z" fill="white"/>
</svg>
